 http://img220.imageshack.us/img220/82/okadka66.jpg

Country.......: Canada
Genre.........: Horror
Date release..: 11.05.2008 [World]
Director......: Brenton Spencer
Writers.......: John Sheppard
Duration......: 86 min.
More..........: http://www.imdb.com/title/tt1135933
Trailer.......: http://www.imdb.com/video/screenplay/vi1702363161
Trailer.......:

Pilot :
Jared Martin moves next door to the Hansetts, along with his hot motorcycle and eerie, ill-tempered dog. Although everyone else in the neighborhood takes an instant liking to him, Loren Hansett can't get over the bad vibes her new neighbor gives her. She starts to spy on his nocturnal activities and comes to believe that a recent killing might the work of a werewolf who happens to be her new neighbor. Her internet surfing provides a lot of collaborative detail but everyone but her friend Steven dismiss her story as teen-aged fantasy. Fearing for her life, she convinces Steven to take her to a gun shop to buy silver bullets in a gun shop, where their neighbor's supernatural dog attacks. When she dispatches the beast, her actions get the attention of Redd Tucker, a washed-up TV hunting show host to believe her as well. When Steven is attacked by the werewolf and Loren's brother goes missing, she and Redd team up to kill the lycanthrope before he can finish them both off.

Cats :
Nina Dobrev   	 ...  	Loren Hansett
Kevin Sorbo 	... 	Redd Tucker
Peter Stebbings 	... 	Jared Martin
Spencer Van Wyck 	... 	Kyle Hansett
Melanie Leishman 	... 	Angie Bremlock
Kim Bourne 	... 	Margo
Sean O Neill 	... 	Steven Kepkie
Nahanni Johnstone 	... 	Christie
Von Flores 	... 	Detective Stalling
Rothaford Gray 	... 	Sergant Hillam
Billy Otis 	... 	Charles Ray Pope
Rebekah Boisvert 	... 	Young Prostitute #1
Julie Sype 	... 	Prostitute #2
Greg Calderone 	... 	Guy Taylor
Kelly Fiddick 	... 	Clerk 

Data Technical :
!!! SAMPLE !!!
Audio.....: Lektor Polish
Subtitles.: None
Format                           : AVI
Format/Info                      : Audio Video Interleave
File size                        : 674 MiB
Duration                         : 1h 25mn
Overall bit rate                 : 1 095 Kbps
Video
ID                               : 0
Format                           : MPEG-4 Visual
Format profile                   : Advanced Simple@L5
Format settings, BVOP            : Yes
Format settings, QPel            : No
Format settings, GMC             : No warppoints
Format settings, Matrix          : Default (H.263)
Codec ID                         : XVID
Codec ID/Hint                    : XviD
Duration                         : 1h 25mn
Bit rate                         : 955 Kbps
Width                            : 640 pixels
Height                           : 352 pixels
Display aspect ratio             : 16:9
Frame rate                       : 25.000 fps
Original frame rate              : 23.976 fps
Color space                      : YUV
Chroma subsampling               : 4:2:0
Bit depth                        : 8 bits
Scan type                        : Progressive
Bits/(Pixel*Frame)               : 0.170
Stream size                      : 587 MiB (87%)
Writing library                  : XviD 1.1.2 (UTC 2006-11-01)
Audio
ID                               : 1
Format                           : MPEG Audio
Format version                   : Version 1
Format profile                   : Layer 3
Mode                             : Joint stereo
Mode extension                   : MS Stereo
Codec ID                         : 55
Codec ID/Hint                    : MP3
Duration                         : 1h 25mn
Bit rate mode                    : Constant
Bit rate                         : 128 Kbps
Channel(s)                       : 2 channels
Sampling rate                    : 48.0 KHz
Bit depth                        : 16 bits
Stream size                      : 78.7 MiB (12%)
Alignment                        : Aligned on interleaves
Interleave, duration             : 24 ms (0.60 video frame)
Writing library                  : LAME3.98 (alpha)

Screen : 
http://img819.imageshack.us/img819/4695/nevercrywerewolf2008s1.jpg 
http://img828.imageshack.us/img828/8854/nevercrywerewolf2008s2.jpg 
http://img571.imageshack.us/img571/8243/nevercrywerewolf2008s3.jpg 
http://img861.imageshack.us/img861/1276/nevercrywerewolf2008s4.jpg 
http://img405.imageshack.us/img405/975/nevercrywerewolf2008s5.jpg